<?xml version="1.0" encoding="UTF-8" standalone="no"?>
<!-- Created with Inkscape (http://www.inkscape.org/) -->

<svg
   xmlns:dc="http://purl.org/dc/elements/1.1/"
   xmlns:cc="http://creativecommons.org/ns#"
   xmlns:rdf="http://www.w3.org/1999/02/22-rdf-syntax-ns#"
   xmlns:svg="http://www.w3.org/2000/svg"
   xmlns="http://www.w3.org/2000/svg"
   xmlns:sodipodi="http://sodipodi.sourceforge.net/DTD/sodipodi-0.dtd"
   xmlns:inkscape="http://www.inkscape.org/namespaces/inkscape"
   width="72px"
   height="72px"
   id="svg2985"
   version="1.1"
   inkscape:version="0.48.4 r9939"
   sodipodi:docname="current.svg"
   inkscape:export-filename="/home/yaginuma/design/android/icon/OneTouchSearch/current.png"
   inkscape:export-xdpi="196.36"
   inkscape:export-ydpi="196.36">
  <defs
     id="defs2987">
    <filter
       inkscape:collect="always"
       id="filter3802">
      <feGaussianBlur
         inkscape:collect="always"
         stdDeviation="0.37414966"
         id="feGaussianBlur3804" />
    </filter>
  </defs>
  <sodipodi:namedview
     id="base"
     pagecolor="#ffffff"
     bordercolor="#666666"
     borderopacity="1.0"
     inkscape:pageopacity="0.0"
     inkscape:pageshadow="2"
     inkscape:zoom="10.986111"
     inkscape:cx="17.840708"
     inkscape:cy="36"
     inkscape:current-layer="layer2"
     showgrid="true"
     inkscape:document-units="px"
     inkscape:grid-bbox="true"
     inkscape:window-width="1600"
     inkscape:window-height="876"
     inkscape:window-x="0"
     inkscape:window-y="24"
     inkscape:window-maximized="1">
    <inkscape:grid
       type="xygrid"
       id="grid2993" />
    <sodipodi:guide
       position="3,3"
       orientation="60,0"
       id="guide2995" />
    <sodipodi:guide
       position="69,3"
       orientation="0,60"
       id="guide2997" />
    <sodipodi:guide
       position="69,69"
       orientation="-60,0"
       id="guide2999" />
    <sodipodi:guide
       position="3,69"
       orientation="0,-60"
       id="guide3001" />
    <sodipodi:guide
       position="5,67"
       orientation="56,0"
       id="guide3003" />
    <sodipodi:guide
       position="5,5"
       orientation="0,56"
       id="guide3005" />
    <sodipodi:guide
       position="67,5"
       orientation="-56,0"
       id="guide3007" />
    <sodipodi:guide
       position="67,67"
       orientation="0,-56"
       id="guide3009" />
  </sodipodi:namedview>
  <metadata
     id="metadata2990">
    <rdf:RDF>
      <cc:Work
         rdf:about="">
        <dc:format>image/svg+xml</dc:format>
        <dc:type
           rdf:resource="http://purl.org/dc/dcmitype/StillImage" />
        <dc:title></dc:title>
      </cc:Work>
    </rdf:RDF>
  </metadata>
  <g
     inkscape:groupmode="layer"
     id="layer2"
     inkscape:label="icon">
    <path
       id="path3001"
       d="m 37.319849,29.774968 c -4.42,0 -8,3.58 -8,8 0,4.42 3.58,8 8,8 4.42,0 8,-3.58 8,-8 0,-4.42 -3.58,-8 -8,-8 z m 17.88,6 c -0.92,-8.34 -7.54,-14.96 -15.88,-15.88 v -4.12 h -4 v 4.12 c -8.34,0.92 -14.96,7.54 -15.88,15.88 h -4.12 v 4 h 4.12 c 0.92,8.34 7.54,14.96 15.88,15.88 v 4.12 h 4 v -4.12 c 8.34,-0.92 14.96,-7.54 15.88,-15.88 h 4.12 v -4 h -4.12 z m -17.88,16 c -7.73,0 -14,-6.27 -14,-14 0,-7.73 6.27,-14 14,-14 7.73,0 14,6.27 14,14 0,7.73 -6.27,14 -14,14 z"
       inkscape:connector-curvature="0"
       style="fill:#999999"
       inkscape:export-xdpi="196.36363"
       inkscape:export-ydpi="196.36363"
       inkscape:export-filename="/home/yaginuma/design/android/icon/OneTouchSearch/current.png" />
  </g>
</svg>
