<?xml version="1.0" encoding="UTF-8" standalone="no"?>
<!-- Created with Inkscape (http://www.inkscape.org/) -->

<svg
   xmlns:dc="http://purl.org/dc/elements/1.1/"
   xmlns:cc="http://creativecommons.org/ns#"
   xmlns:rdf="http://www.w3.org/1999/02/22-rdf-syntax-ns#"
   xmlns:svg="http://www.w3.org/2000/svg"
   xmlns="http://www.w3.org/2000/svg"
   xmlns:sodipodi="http://sodipodi.sourceforge.net/DTD/sodipodi-0.dtd"
   xmlns:inkscape="http://www.inkscape.org/namespaces/inkscape"
   width="72px"
   height="72px"
   id="svg2985"
   version="1.1"
   inkscape:version="0.48.4 r9939"
   sodipodi:docname="OneTouchSearch.svg">
  <defs
     id="defs2987" />
  <sodipodi:namedview
     id="base"
     pagecolor="#ffffff"
     bordercolor="#666666"
     borderopacity="1.0"
     inkscape:pageopacity="0.0"
     inkscape:pageshadow="2"
     inkscape:zoom="5.4930555"
     inkscape:cx="29.403726"
     inkscape:cy="42.497834"
     inkscape:current-layer="layer2"
     showgrid="true"
     inkscape:document-units="px"
     inkscape:grid-bbox="true"
     inkscape:window-width="1600"
     inkscape:window-height="876"
     inkscape:window-x="0"
     inkscape:window-y="24"
     inkscape:window-maximized="1">
    <inkscape:grid
       type="xygrid"
       id="grid2993" />
    <sodipodi:guide
       position="3,3"
       orientation="60,0"
       id="guide2995" />
    <sodipodi:guide
       position="69,3"
       orientation="0,60"
       id="guide2997" />
    <sodipodi:guide
       position="69,69"
       orientation="-60,0"
       id="guide2999" />
    <sodipodi:guide
       position="3,69"
       orientation="0,-60"
       id="guide3001" />
    <sodipodi:guide
       position="5,67"
       orientation="56,0"
       id="guide3003" />
    <sodipodi:guide
       position="5,5"
       orientation="0,56"
       id="guide3005" />
    <sodipodi:guide
       position="67,5"
       orientation="-56,0"
       id="guide3007" />
    <sodipodi:guide
       position="67,67"
       orientation="0,-56"
       id="guide3009" />
  </sodipodi:namedview>
  <metadata
     id="metadata2990">
    <rdf:RDF>
      <cc:Work
         rdf:about="">
        <dc:format>image/svg+xml</dc:format>
        <dc:type
           rdf:resource="http://purl.org/dc/dcmitype/StillImage" />
        <dc:title></dc:title>
      </cc:Work>
    </rdf:RDF>
  </metadata>
  <g
     inkscape:groupmode="layer"
     id="layer2"
     inkscape:label="icon">
    <rect
       style="fill:#e5e5e5;fill-opacity:1;fill-rule:nonzero;stroke:none"
       id="rect3073"
       width="72.059639"
       height="72.02037"
       x="0.12872741"
       y="0.069088906"
       rx="2.745095"
       ry="2.5897009" />
    <rect
       style="fill:#ffffff;fill-opacity:0.94117647;fill-rule:nonzero;stroke:none"
       id="rect3843"
       width="4.1333337"
       height="71.930908"
       x="9.5220566"
       y="0.069088921"
       rx="0"
       ry="0" />
    <rect
       style="fill:#ffffff;fill-opacity:0.94117647;fill-rule:nonzero;stroke:none"
       id="rect3863"
       width="72.039268"
       height="3.7127259"
       x="0.12872741"
       y="34.317093" />
    <rect
       style="fill:#84b8e4;fill-opacity:1;fill-rule:nonzero;stroke:none"
       id="rect3865"
       width="7.9403615"
       height="32.594917"
       x="0.84732479"
       y="1.2072669"
       rx="2.1797047"
       ry="0" />
    <rect
       style="fill:#94d853;fill-opacity:1;fill-rule:nonzero;stroke:none"
       id="rect3867"
       width="57.80323"
       height="31.509558"
       x="14.018258"
       y="38.802185"
       rx="0"
       ry="0" />
    <rect
       style="fill:#84b8e4;fill-opacity:1;fill-rule:nonzero;stroke:none"
       id="rect3865-9"
       width="7.9403615"
       height="32.594917"
       x="0.97605217"
       y="38.666943"
       rx="2.1797047"
       ry="0" />
    <rect
       style="fill:#ffffff;fill-opacity:0.94117647;fill-rule:nonzero;stroke:none"
       id="rect3890"
       width="58.436829"
       height="4.850904"
       x="13.747749"
       y="14.832003" />
    <g
       id="g3989"
       transform="translate(89.218711,-10.816688)"
       style="fill:none;fill-opacity:1">
      <path
         id="path3979"
         d="M 18,8 C 18,4.69 15.31,2 12,2 8.69,2 6,4.69 6,8 c 0,4.5 6,11 6,11 0,0 6,-6.5 6,-11 z m -8,0 c 0,-1.1 0.9,-2 2,-2 1.1,0 2,0.9 2,2 0,1.1 -0.89,2 -2,2 -1.1,0 -2,-0.9 -2,-2 z M 5,20 v 2 H 19 V 20 H 5 z"
         inkscape:connector-curvature="0"
         style="fill:none;fill-opacity:1" />
      <path
         id="path3981"
         d="M 0,0 H 24 V 24 H 0 z"
         inkscape:connector-curvature="0"
         style="fill:none;fill-opacity:1" />
    </g>
    <path
       inkscape:connector-curvature="0"
       d="m 44.149466,62.403324 c 0,-0.925509 -0.752149,-1.67766 -1.677658,-1.67766 -0.92551,0 -1.677661,0.752151 -1.677661,1.67766 0,1.258245 1.677661,3.07571 1.677661,3.07571 0,0 1.677658,-1.817465 1.677658,-3.07571 z m -2.236878,0 c 0,-0.307571 0.251649,-0.55922 0.55922,-0.55922 0.307571,0 0.55922,0.251649 0.55922,0.55922 0,0.307571 -0.248853,0.55922 -0.55922,0.55922 -0.307571,0 -0.55922,-0.251649 -0.55922,-0.55922 z m -1.398051,3.35532 v 0.55922 h 3.91454 v -0.55922 h -3.91454 z"
       id="path3995"
       style="fill:#ff6600;fill-opacity:1" />
    <path
       style="fill:none"
       inkscape:connector-curvature="0"
       d="m 78.477876,-11.726929 h 23.999994 v 24 H 78.477876 z"
       id="path3997" />
    <path
       inkscape:connector-curvature="0"
       d="m 26.854906,7.0607186 c 0,-0.925509 -0.75215,-1.67766 -1.67766,-1.67766 -0.92551,0 -1.677663,0.752151 -1.677663,1.67766 0,1.258245 1.677663,3.0757104 1.677663,3.0757104 0,0 1.67766,-1.8174654 1.67766,-3.0757104 z m -2.23688,0 c 0,-0.307571 0.25165,-0.55922 0.55922,-0.55922 0.30757,0 0.55922,0.251649 0.55922,0.55922 0,0.307571 -0.24885,0.55922 -0.55922,0.55922 -0.30757,0 -0.55922,-0.251649 -0.55922,-0.55922 z m -1.398053,3.3553204 v 0.55922 h 3.914543 v -0.55922 h -3.914543 z"
       id="path3995-9"
       style="fill:#ff6600;fill-opacity:1" />
    <path
       id="path4049"
       d="m 50.87044,44.30925 h -2.36785 l -0.81907,-0.819064 c 2.91885,-3.380504 4.67611,-7.77367 4.67611,-12.583813 0,-10.692518 -8.66719,-19.359711 -19.359702,-19.359711 -10.692518,0 -19.359712,8.667193 -19.359712,19.359711 0,10.692518 8.667194,19.35971 19.359712,19.35971 4.810143,0 9.203302,-1.757265 12.583812,-4.661221 l 0.81906,0.819064 v 2.35295 L 61.29488,63.639177 65.73273,59.201336 50.87044,44.30925 z m -17.870512,0 c -7.401367,0 -13.402879,-6.00151 -13.402879,-13.402877 0,-7.401367 6.001512,-13.402879 13.402879,-13.402879 7.401358,0 13.402872,6.001512 13.402872,13.402879 0,7.401367 -6.001514,13.402877 -13.402872,13.402877 z"
       inkscape:connector-curvature="0"
       style="fill:#d35f5f;fill-opacity:1" />
  </g>
</svg>
